<svg xmlns="http://www.w3.org/2000/svg" width="20.994" height="19" viewBox="0 0 20.994 19">
  <path id="Heart" d="M20.624,3.543A4.937,4.937,0,0,0,18.015.584,6.12,6.12,0,0,0,15.368,0a5.494,5.494,0,0,0-4.789,2.492l-.078.156-.078-.117A5.542,5.542,0,0,0,5.634.039,6.12,6.12,0,0,0,2.987.623,5.12,5.12,0,0,0,.339,3.582,6.574,6.574,0,0,0,.573,8.449c1.635,3.426,9.305,10.162,9.617,10.473a.286.286,0,0,0,.234.078h.039a.337.337,0,0,0,.234-.117c.467-.389,8.02-7.047,9.617-10.473A6.227,6.227,0,0,0,20.624,3.543Z" transform="translate(0.019)" fill="#fff"/>
</svg>
